<?xml version="1.0" encoding="UTF-8" standalone="no" ?>
<!DOCTYPE svg PUBLIC "-//W3C//DTD SVG 1.1//EN" "http://www.w3.org/Graphics/SVG/1.1/DTD/svg11.dtd">
<svg xmlns="http://www.w3.org/2000/svg" xmlns:xlink="http://www.w3.org/1999/xlink" version="1.1" width="1280" height="1024" viewBox="0 0 1280 1024" xml:space="preserve">
<desc>Created with Fabric.js 3.6.3</desc>
<defs>
</defs>
<g transform="matrix(1.966205837173579 0 0 1.966205837173579 640.2456813819579 512.1966205837175)" id="background-logo"  >
<rect style="stroke: none; stroke-width: 1; stroke-dasharray: none; stroke-linecap: butt; stroke-dashoffset: 0; stroke-linejoin: miter; stroke-miterlimit: 4; fill: rgb(255,255,255); fill-rule: nonzero; opacity: 1;"  paint-order="stroke"  x="-325" y="-260" rx="0" ry="0" width="650" height="520" />
</g>
<g transform="matrix(1.9699870022450672 0 0 1.9699870022450672 639.2941776598735 638.0588456756316)" id="text-logo-path"  >
<path style="stroke: rgb(255,255,255); stroke-width: 0; stroke-dasharray: none; stroke-linecap: butt; stroke-dashoffset: 0; stroke-linejoin: miter; stroke-miterlimit: 4; fill: rgb(3,59,91); fill-rule: nonzero; opacity: 1;"  paint-order="stroke"  transform=" translate(-107.295, 22.045)" d="M 22.22 -44.57 Q 29.19 -44.57 34.29 -41.26 L 34.29 -41.26 L 33.19 -36.23 L 32.57 -36.09 Q 27.95 -39.95 21.94 -39.95 L 21.94 -39.95 Q 15.39 -39.95 11.87 -35.43 Q 8.35 -30.91 8.35 -22.22 L 8.35 -22.22 Q 8.35 -13.46 11.87 -8.83 Q 15.39 -4.21 21.8 -4.21 L 21.8 -4.21 Q 24.84 -4.21 27.84 -5.31 Q 30.84 -6.42 33.33 -8.42 L 33.33 -8.42 L 34.02 -8.07 L 33.53 -2.83 Q 27.53 0.48 21.32 0.48 L 21.32 0.48 Q 12.42 0.48 7.52 -5.28 Q 2.62 -11.04 2.62 -21.74 L 2.62 -21.74 Q 2.62 -32.71 7.73 -38.64 Q 12.83 -44.57 22.22 -44.57 L 22.22 -44.57 Z M 57.89 -13.87 Q 62.1 -7.45 67.21 -1.24 L 67.21 -1.24 L 67.14 -0.55 Q 64.24 0.35 62.38 0.48 L 62.38 0.48 L 61.48 -0.07 Q 56.23 -8 53.54 -12.56 L 53.54 -12.56 L 47.06 -12.49 L 47.06 -10.76 L 47.2 0 L 42.09 0 L 42.3 -10.35 L 42.09 -34.36 L 53.82 -34.43 Q 59.27 -34.43 62.2 -31.88 Q 65.14 -29.33 65.14 -24.5 L 65.14 -24.5 Q 65.14 -20.98 63.24 -18.22 Q 61.34 -15.46 57.89 -13.87 L 57.89 -13.87 Z M 47.2 -30.22 L 47.13 -16.77 L 53.61 -16.56 Q 59.75 -18.29 59.75 -24.08 L 59.75 -24.08 Q 59.75 -27.12 57.96 -28.64 Q 56.17 -30.15 52.51 -30.29 L 52.51 -30.29 L 47.2 -30.22 Z M 89.15 -34.78 Q 96.67 -34.78 100.71 -30.36 Q 104.74 -25.94 104.74 -17.87 L 104.74 -17.87 Q 104.74 -9.11 100.43 -4.31 Q 96.12 0.48 88.11 0.48 L 88.11 0.48 Q 80.66 0.48 76.59 -4.04 Q 72.52 -8.56 72.52 -16.91 L 72.52 -16.91 Q 72.52 -25.46 76.87 -30.12 Q 81.21 -34.78 89.15 -34.78 L 89.15 -34.78 Z M 88.67 -30.43 Q 83.21 -30.43 80.56 -27.32 Q 77.9 -24.22 77.9 -17.53 L 77.9 -17.53 Q 77.9 -10.35 80.52 -7.11 Q 83.15 -3.86 88.53 -3.86 L 88.53 -3.86 Q 94.05 -3.86 96.74 -7.04 Q 99.43 -10.21 99.43 -16.97 L 99.43 -16.97 Q 99.43 -23.94 96.77 -27.19 Q 94.12 -30.43 88.67 -30.43 L 88.67 -30.43 Z M 142.76 -34.5 L 142.55 -10.28 L 142.62 0 L 137.1 0 L 119.03 -26.22 L 118.68 -26.22 L 118.61 -11.45 L 118.75 0 L 114.06 0 L 114.26 -10.14 L 114.13 -34.36 L 119.58 -34.36 L 137.66 -8.14 L 138.14 -8.14 L 138 -34.16 L 142.76 -34.5 Z M 167.53 -34.78 Q 175.05 -34.78 179.09 -30.36 Q 183.13 -25.94 183.13 -17.87 L 183.13 -17.87 Q 183.13 -9.11 178.81 -4.31 Q 174.5 0.48 166.5 0.48 L 166.5 0.48 Q 159.05 0.48 154.97 -4.04 Q 150.9 -8.56 150.9 -16.91 L 150.9 -16.91 Q 150.9 -25.46 155.25 -30.12 Q 159.6 -34.78 167.53 -34.78 L 167.53 -34.78 Z M 167.05 -30.43 Q 161.6 -30.43 158.94 -27.32 Q 156.28 -24.22 156.28 -17.53 L 156.28 -17.53 Q 156.28 -10.35 158.91 -7.11 Q 161.53 -3.86 166.91 -3.86 L 166.91 -3.86 Q 172.43 -3.86 175.12 -7.04 Q 177.81 -10.21 177.81 -16.97 L 177.81 -16.97 Q 177.81 -23.94 175.16 -27.19 Q 172.5 -30.43 167.05 -30.43 L 167.05 -30.43 Z M 202.58 -34.71 Q 206.79 -34.71 211 -33.05 L 211 -33.05 L 210.1 -27.95 L 209.28 -27.74 Q 207.34 -29.26 205.62 -29.98 Q 203.89 -30.71 202.03 -30.71 L 202.03 -30.71 Q 199.06 -30.71 197.34 -29.15 Q 195.62 -27.6 195.62 -25.6 L 195.62 -25.6 Q 195.62 -23.6 197.31 -22.36 Q 199 -21.11 202.51 -19.6 L 202.51 -19.6 Q 205.62 -18.22 207.45 -17.11 Q 209.28 -16.01 210.62 -14.18 Q 211.97 -12.35 211.97 -9.73 L 211.97 -9.73 Q 211.97 -7.04 210.52 -4.73 Q 209.07 -2.42 206.28 -1 Q 203.48 0.41 199.62 0.41 L 199.62 0.41 Q 197.2 0.41 194.55 -0.17 Q 191.89 -0.76 189.61 -1.93 L 189.61 -1.93 L 190.23 -7.38 L 190.92 -7.66 Q 192.85 -5.73 195.44 -4.66 Q 198.03 -3.59 200.24 -3.59 L 200.24 -3.59 Q 203.14 -3.59 205 -5.14 Q 206.86 -6.69 206.86 -8.9 L 206.86 -8.9 Q 206.86 -10.97 205.17 -12.21 Q 203.48 -13.46 199.89 -15.11 L 199.89 -15.11 Q 196.93 -16.42 195.03 -17.53 Q 193.13 -18.63 191.82 -20.46 Q 190.51 -22.29 190.51 -24.91 L 190.51 -24.91 Q 190.51 -27.67 191.99 -29.88 Q 193.48 -32.09 196.2 -33.4 Q 198.93 -34.71 202.58 -34.71 L 202.58 -34.71 Z" stroke-linecap="round" />
</g>
<g transform="matrix(1.5155407818751445 0 0 1.5155407818751445 640.2456813819579 353.37715717866115)" id="logo-logo"  >
<g style=""  paint-order="stroke"   >
		<g transform="matrix(0.3324995342785188 0 0 -0.3324995342785188 -64.39948995499617 14.974116526233075)"  >
<path style="stroke: none; stroke-width: 1; stroke-dasharray: none; stroke-linecap: butt; stroke-dashoffset: 0; stroke-linejoin: miter; stroke-miterlimit: 4; fill: rgb(42,205,220); fill-rule: nonzero; opacity: 1;"  paint-order="stroke"  transform=" translate(-1431.3370521584798, -1386.895)" d="m 1564.2 1375.38 c 19.55 15.89 19.24 46.97 -1.01 61.85 c -66.99 49.2 -180.31 153.09 -203.71 204.97 c -47.13 -58.48 -75.43 -132.75 -75.43 -213.55 c 0 -127.33 70.21 -238.52 173.91 -297.06 c 5.5 32.13 35.07 185.93 106.24 243.79" stroke-linecap="round" />
</g>
		<g transform="matrix(0.3324995342785188 0 0 -0.3324995342785188 53.74189972543695 -2.842171e-14)"  >
<path style="stroke: none; stroke-width: 1; stroke-dasharray: none; stroke-linecap: butt; stroke-dashoffset: 0; stroke-linejoin: miter; stroke-miterlimit: 4; fill: rgb(42,205,220); fill-rule: nonzero; opacity: 1;"  paint-order="stroke"  transform=" translate(-1786.65, -1431.93)" d="m 1625.02 1769.62 c -5.94 0 -11.85 -0.16 -17.71 -0.46 c 45.88 -38.07 164.57 -184.96 211.46 -243.79 c 27.43 -34.41 42.53 -77.65 39.44 -121.55 c -1.47 -20.83 -6.57 -40.19 -15.31 -55 c -42.79 -72.47 -116.89 -194.89 -151.41 -254.58 c 156.3 31.02 274.5 169.15 274.5 334.41 c 0 188.01 -152.96 340.97 -340.97 340.97" stroke-linecap="round" />
</g>
		<g transform="matrix(0.3324995342785188 0 0 -0.3324995342785188 0 -2.842171e-14)"  >
<path style="stroke: none; stroke-width: 1; stroke-dasharray: none; stroke-linecap: butt; stroke-dashoffset: 0; stroke-linejoin: miter; stroke-miterlimit: 4; fill: rgb(13,68,98); fill-rule: nonzero; opacity: 1;"  paint-order="stroke"  transform=" translate(-1625.02, -1431.93)" d="m 1625.02 1065.82 c -202.2 0 -366.11 163.91 -366.11 366.11 c 0 202.2 163.91 366.11 366.11 366.11 c 202.19 0 366.11 -163.91 366.11 -366.11 c 0 -202.2 -163.92 -366.11 -366.11 -366.11 z m 0 779.41 c -228.26 0 -413.3 -185.04 -413.3 -413.3 c 0 -228.26 185.04 -413.3 413.3 -413.3 c 228.26 0 413.3 185.04 413.3 413.3 c 0 228.26 -185.04 413.3 -413.3 413.3" stroke-linecap="round" />
</g>
		<g transform="matrix(0.3324995342785188 0 0 -0.3324995342785188 -4.206318320601554 -40.65481112362491)"  >
<path style="stroke: none; stroke-width: 1; stroke-dasharray: none; stroke-linecap: butt; stroke-dashoffset: 0; stroke-linejoin: miter; stroke-miterlimit: 4; fill: rgb(13,68,98); fill-rule: nonzero; opacity: 1;"  paint-order="stroke"  transform=" translate(-1612.3694008653915, -1554.2002799023182)" d="m 1721.83 1456.81 c 11.73 0.42 21.58 -8.74 22.01 -20.47 c 0.42 -11.73 -8.74 -21.58 -20.47 -22.01 c -11.73 -0.42 -21.58 8.74 -22.01 20.47 c -0.42 11.73 8.74 21.58 20.47 22.01 z m -69.25 2.61 c -2.83 -8.31 -4.3 -17.24 -3.96 -26.53 c 1.47 -40.86 35.8 -72.79 76.66 -71.31 c 40.86 1.48 72.78 35.81 71.31 76.67 c -1.48 40.86 -35.81 72.78 -76.67 71.3 l -1.63 -0.14 l -215.52 237.46 c -26.67 -10.28 -51.71 -23.82 -74.67 -40.12 l 224.48 -247.33" stroke-linecap="round" />
</g>
		<g transform="matrix(0.3324995342785188 0 0 -0.3324995342785188 19.17565705650361 48.04618270324602)"  >
<path style="stroke: none; stroke-width: 1; stroke-dasharray: none; stroke-linecap: butt; stroke-dashoffset: 0; stroke-linejoin: miter; stroke-miterlimit: 4; fill: rgb(13,68,98); fill-rule: nonzero; opacity: 1;"  paint-order="stroke"  transform=" translate(-1682.6912298202533, -1287.43)" d="m 1628.56 1087.78 l 99.96 218.42 c 54.85 7.63 96.12 55.69 94.08 112.24 c -0.96 26.46 -11.25 50.38 -27.59 68.73 c 10.07 -13.89 16.27 -30.8 16.93 -49.22 c 1.79 -49.38 -36.78 -90.85 -86.16 -92.64 c -49.37 -1.79 -90.85 36.79 -92.63 86.16 c -0.28 7.76 0.53 15.29 2.13 22.53 l -15.47 17.04 c -10.67 -17.61 -16.54 -38.4 -15.74 -60.51 c 1.24 -34.29 18.16 -64.28 43.59 -83.42 l -104.95 -229.32 c 26.38 -6.56 53.93 -10.1 82.31 -10.1 c 1.18 0 2.35 0.07 3.54 0.09" stroke-linecap="round" />
</g>
		<g transform="matrix(0.3324995342785188 0 0 -0.3324995342785188 -19.412985308851262 70.05598937481258)"  >
<path style="stroke: none; stroke-width: 1; stroke-dasharray: none; stroke-linecap: butt; stroke-dashoffset: 0; stroke-linejoin: miter; stroke-miterlimit: 4; fill: rgb(13,68,98); fill-rule: nonzero; opacity: 1;"  paint-order="stroke"  transform=" translate(-1566.635, -1221.2350000000001)" d="m 1630.03 1320.46 c -6.73 5.96 -12.88 12.56 -18.21 19.83 l -108.58 -230.04 c 7.71 -2.96 15.55 -5.66 23.52 -8.07 l 103.27 218.28" stroke-linecap="round" />
</g>
</g>
</g>
</svg>